<svg xmlns="http://www.w3.org/2000/svg" width="960" height="538.104" viewBox="0 0 960 538.104" xmlns:xlink="http://www.w3.org/1999/xlink" role="img" artist="Katerina Limpitsouni" source="https://undraw.co/"><g transform="translate(-526.074 -294.181)"><circle cx="55.56" cy="55.56" r="55.56" transform="translate(714.75 351.632)" fill="#ff6584"/><path d="M572.031,483.547H299.468a5.554,5.554,0,0,1-1.019-.081l128.91-223.29a9.026,9.026,0,0,1,15.712,0l86.515,149.845,4.145,7.17Z" transform="translate(372.511 94.863)" fill="#3f3d56"/><path d="M399.618,266.027h-93.06l45.683-66.356,3.288-4.78,1.644-2.389,4.145,7.169Z" transform="translate(544.924 312.382)" opacity="0.2"/><path d="M707.42,477.864H471.675l45.683-66.356,3.287-4.78,59.529-86.474c3.9-5.667,13.291-6.02,17.88-1.069a10.763,10.763,0,0,1,.857,1.069Z" transform="translate(388.884 100.545)" fill="#3f3d56"/><circle cx="16.742" cy="16.742" r="16.742" transform="translate(1148.762 508.191)" fill="#6c63ff"/><path d="M595.234,261.466H591.8l1.563-52.95Z" transform="translate(571.884 313.896)" fill="#3f3d56"/><path d="M593.548,218.125l3.682-5.094-3.732,6.355-.4-.706Z" transform="translate(572.006 314.323)" fill="#3f3d56"/><path d="M593.459,222.824l-3.682-5.093,3.732,6.354.4-.706Z" transform="translate(571.692 314.767)" fill="#3f3d56"/><circle cx="16.742" cy="16.742" r="16.742" transform="translate(1302.341 508.191)" fill="#6c63ff"/><path d="M735.55,261.466h-3.429l1.564-52.95Z" transform="translate(585.146 313.896)" fill="#3f3d56"/><path d="M733.865,218.125l3.682-5.094-3.732,6.355-.4-.706Z" transform="translate(585.268 314.323)" fill="#3f3d56"/><path d="M733.776,222.824l-3.682-5.093,3.732,6.354.4-.706Z" transform="translate(584.954 314.767)" fill="#3f3d56"/><circle cx="24.727" cy="24.727" r="24.727" transform="translate(1189.277 476.156)" fill="#6c63ff"/><path d="M640.389,263.647h-5.064l2.308-78.2Z" transform="translate(575.997 311.715)" fill="#3f3d56"/><path d="M637.9,199.634l5.436-7.521-5.511,9.384-.6-1.043Z" transform="translate(576.177 312.346)" fill="#3f3d56"/><path d="M637.767,206.575l-5.436-7.522,5.511,9.383.6-1.042Z" transform="translate(575.714 313.002)" fill="#3f3d56"/><circle cx="24.727" cy="24.727" r="24.727" transform="translate(1249.578 476.156)" fill="#6c63ff"/><path d="M695.483,263.647h-5.064l2.308-78.2Z" transform="translate(581.204 311.715)" fill="#3f3d56"/><path d="M692.994,199.634l5.438-7.521-5.512,9.384-.6-1.043Z" transform="translate(581.385 312.346)" fill="#3f3d56"/><path d="M692.862,206.575l-5.438-7.522,5.512,9.383.6-1.042Z" transform="translate(580.922 313.002)" fill="#3f3d56"/><circle cx="24.727" cy="24.727" r="24.727" transform="translate(1093.172 476.156)" fill="#6c63ff"/><path d="M552.583,263.647h-5.064l2.31-78.2Z" transform="translate(567.698 311.715)" fill="#3f3d56"/><path d="M550.095,199.634l5.437-7.521L550.02,201.5l-.6-1.043Z" transform="translate(567.879 312.346)" fill="#3f3d56"/><path d="M549.963,206.575l-5.437-7.522,5.512,9.383.6-1.042Z" transform="translate(567.415 313.002)" fill="#3f3d56"/><path d="M1050.441,718.443H243.494a77.419,77.419,0,0,1,0-154.839h805.161a29.777,29.777,0,0,0,0-59.553H216.695V456.408h831.96a77.419,77.419,0,0,1,0,154.839H243.494a29.777,29.777,0,0,0,0,59.553h806.948Z" transform="translate(360 113.842)" fill="#e6e6e6"/><rect width="36.923" height="2.382" transform="translate(606.471 592.881)" fill="#fff"/><rect width="36.923" height="2.382" transform="translate(711.285 592.881)" fill="#fff"/><rect width="36.923" height="2.382" transform="translate(816.099 592.881)" fill="#fff"/><rect width="36.923" height="2.382" transform="translate(920.913 592.881)" fill="#fff"/><rect width="36.923" height="2.382" transform="translate(1025.727 592.881)" fill="#fff"/><rect width="36.923" height="2.382" transform="translate(1130.541 592.881)" fill="#fff"/><rect width="36.923" height="2.382" transform="translate(1235.355 592.881)" fill="#fff"/><rect width="36.923" height="2.382" transform="translate(1340.168 592.881)" fill="#fff"/><rect width="36.923" height="2.382" transform="translate(606.471 700.076)" fill="#fff"/><rect width="36.923" height="2.382" transform="translate(711.285 700.076)" fill="#fff"/><rect width="36.923" height="2.382" transform="translate(816.099 700.076)" fill="#fff"/><rect width="36.923" height="2.382" transform="translate(920.913 700.076)" fill="#fff"/><rect width="36.923" height="2.382" transform="translate(1025.727 700.076)" fill="#fff"/><rect width="36.923" height="2.382" transform="translate(1130.541 700.076)" fill="#fff"/><rect width="36.923" height="2.382" transform="translate(1235.355 700.076)" fill="#fff"/><rect width="36.923" height="2.382" transform="translate(1340.168 700.076)" fill="#fff"/><rect width="36.923" height="2.382" transform="translate(606.471 807.273)" fill="#fff"/><rect width="36.923" height="2.382" transform="translate(711.285 807.273)" fill="#fff"/><rect width="36.923" height="2.382" transform="translate(816.099 807.273)" fill="#fff"/><rect width="36.923" height="2.382" transform="translate(920.913 807.273)" fill="#fff"/><rect width="36.923" height="2.382" transform="translate(1025.727 807.273)" fill="#fff"/><rect width="36.923" height="2.382" transform="translate(1130.541 807.273)" fill="#fff"/><rect width="36.923" height="2.382" transform="translate(1235.355 807.273)" fill="#fff"/><rect width="36.923" height="2.382" transform="translate(1340.168 807.273)" fill="#fff"/><path d="M732.581,299.418a31.732,31.732,0,0,0-6.616-6.243h13.817a23.11,23.11,0,0,0-7.2,6.243Z" transform="translate(412.918 98.414)" fill="none"/><path d="M690.743,293.176h2.382c-.512.359-1.025.717-1.514,1.106C691.332,293.9,691.034,293.543,690.743,293.176Z" transform="translate(409.589 98.415)" fill="none"/><path d="M749.647,290.559a22.8,22.8,0,0,1,11.087,2.865H738.589A22.7,22.7,0,0,1,749.647,290.559Z" transform="translate(414.111 98.167)" fill="#e6e6e6"/><path d="M710.992,287.941a31.327,31.327,0,0,1,18.1,5.73H692.919A31.32,31.32,0,0,1,710.992,287.941Z" transform="translate(409.794 97.92)" fill="#e6e6e6"/><path d="M487.042,259.593a58.727,58.727,0,0,1,115.224-12.382c.712-.026,1.422-.054,2.14-.054a58.738,58.738,0,0,1,56.345,42.17A41.5,41.5,0,0,1,710,301.587H526.811A39.723,39.723,0,0,1,487,260.459Q487.018,260.026,487.042,259.593Z" transform="translate(390.33 90.003)" fill="#e6e6e6"/><path d="M778.209,338.594a31.735,31.735,0,0,1,6.616-6.243H771.008a23.109,23.109,0,0,1,7.2,6.243Z" transform="translate(417.175 102.117)" fill="none"/><path d="M819.06,332.352h-2.382c.512.36,1.025.717,1.514,1.106C818.47,333.08,818.768,332.719,819.06,332.352Z" transform="translate(421.491 102.117)" fill="none"/><path d="M761.862,329.734a22.8,22.8,0,0,0-11.087,2.865h22.145a22.7,22.7,0,0,0-11.058-2.865Z" transform="translate(415.263 101.87)" fill="#e6e6e6"/><path d="M801.729,327.117a31.328,31.328,0,0,0-18.1,5.73H819.8A31.321,31.321,0,0,0,801.729,327.117Z" transform="translate(418.368 101.622)" fill="#e6e6e6"/><path d="M1041.814,298.768A58.727,58.727,0,0,0,926.59,286.387c-.712-.026-1.422-.054-2.14-.054a58.738,58.738,0,0,0-56.345,42.17,41.5,41.5,0,0,0-49.251,12.26h183.191a39.724,39.724,0,0,0,39.811-41.129Q1041.838,299.2,1041.814,298.768Z" transform="translate(421.697 93.706)" fill="#e6e6e6"/><rect width="21.291" height="3.38" transform="matrix(-1, -0.001, 0.001, -1, 1362.667, 799.007)" fill="#3f3d56"/><path d="M770.331,670.423l4.393,1.016,166.95.089,1.5-3.5a35.306,35.306,0,0,0,2.6-19.09c-.719-4.831-2.521-9.631-6.613-11.716,0,0,.169-42.375-7.409-49.345s-85.282-1.025-92.365-.165-35.736,28.823-35.736,28.823-16.857-.3-26.015,11.1a26.76,26.76,0,0,0-5.6,14.739l-.361,5.931Z" transform="translate(417.111 125.952)" fill="#6c63ff"/><circle cx="20.615" cy="20.615" r="20.615" transform="translate(1203.496 774.934)" fill="#3f3d56"/><circle cx="10.85" cy="10.85" r="10.85" transform="translate(1213.261 784.699)" fill="#ccc"/><circle cx="20.615" cy="20.615" r="20.615" transform="translate(1305.22 774.989)" fill="#3f3d56"/><circle cx="10.85" cy="10.85" r="10.85" transform="translate(1314.985 784.754)" fill="#ccc"/><path d="M656.92,408.232l49.869.021h6.088l10.278.008v-.75l.008-9.038.008-10.148h-6.839l-6.088-.007-10.783-.008h-6.088l-12.449-.008Z" transform="translate(578.038 330.888)" fill="#fff"/><path d="M724.849,408.266l26.356.014.007-5.172V394.07l.008-5.727H747.36l-6.088-.008-16.415-.007Z" transform="translate(584.459 330.891)" fill="#fff"/><rect width="3.38" height="6.421" transform="matrix(-1, -0.001, 0.001, -1, 1301.181, 760.448)" fill="#3f3d56"/><rect width="3.38" height="6.421" transform="matrix(-0.001, 1, -1, -0.001, 1248.475, 744.872)" fill="#3f3d56"/><path d="M0,0H.372A7.063,7.063,0,0,1,7.435,7.063h0A7.063,7.063,0,0,1,.372,14.126H0Z" transform="matrix(-1, -0.001, 0.001, -1, 1246.101, 746.359)" fill="#3f3d56"/><path d="M771.559,644.582a10.917,10.917,0,0,0,5.959-20.67,26.76,26.76,0,0,0-5.6,14.739Z" transform="translate(417.227 129.674)" fill="#3f3d56"/><path d="M705.639,388.316l12.911,19.193.008-9.038-6.831-10.148Z" transform="translate(582.643 330.89)" fill="#f2f2f2"/><path d="M739.854,388.335l9.939,14.773v-9.038l-3.852-5.727Z" transform="translate(585.877 330.891)" fill="#f2f2f2"/><path d="M690.225,388.309l13.417,19.943h6.088l-13.417-19.943Z" transform="translate(581.186 330.889)" fill="#f2f2f2"/><circle cx="41.655" cy="41.655" r="41.655" transform="translate(530.312 551.226)" fill="#d6d6e3"/><g transform="translate(536.564 481.833)"><path d="M839.706,185.4c0,19.552-35.4,63.108-35.4,63.108s-35.4-43.556-35.4-63.108a35.4,35.4,0,0,1,70.8,0Z" transform="translate(-768.9 -150)" fill="#6c63ff"/><path d="M834.954,197.169a16.184,16.184,0,1,1-16.184-16.184A16.184,16.184,0,0,1,834.954,197.169Z" transform="translate(-783.366 -163.305)" fill="#fff" style="isolation:isolate"/><ellipse cx="9.543" cy="9.543" rx="9.543" ry="9.543" transform="translate(25.859 102.787)" fill="#6c63ff"/></g></g></svg>